<?xml version="1.0" encoding="utf-8"?>
<!-- Generator: Adobe Illustrator 13.0.0, SVG Export Plug-In . SVG Version: 6.00 Build 14948)  -->
<!DOCTYPE svg PUBLIC "-//W3C//DTD SVG 1.1//EN" "http://www.w3.org/Graphics/SVG/1.1/DTD/svg11.dtd">
<svg version="1.1" id="Calque_1" xmlns="http://www.w3.org/2000/svg" xmlns:xlink="http://www.w3.org/1999/xlink" x="0px" y="0px"
	 width="70px" height="70px" viewBox="0 0 70 70" enable-background="new 0 0 70 70" xml:space="preserve">
<path fill="none" stroke="#814792" stroke-width="2.72" d="M42.786,12.715c0,0-5.312,0.178-9.737,3.895
	c-4.425,3.717-15.578,15.046-15.578,15.046"/>
<path fill="none" stroke="#814792" stroke-width="2.72" d="M25.437,30.594c0,0,6.196,0,11.33,0c19.118,0,20.004-25.49,20.004-25.49
	s-18.941-0.177-23.189,0c-4.25,0.177-10.622,2.124-12.038,6.904c-1.417,4.779-1.063,12.923-1.063,12.923"/>
<path fill="none" stroke="#814792" stroke-width="2.72" d="M54.671,46.634l5.75-6.031c0,0,2.805-2.944,1.402-5.049
	c-1.402-2.104-6.171-0.281-6.171-0.281L42.89,46.634c0,0-2.104,1.823-2.104,5.189s0,8.135,0,8.135"/>
<path fill="none" stroke="#814792" stroke-width="2.72" d="M53.549,61.22l14.306-16.83l0.421-23.702c0,0,0.42-6.031-1.963-5.189
	c-2.386,0.841-5.471,2.244-5.61,5.61c-0.141,3.366-0.141,12.763-0.141,12.763"/>
<polyline fill="none" stroke="#814792" stroke-width="2.72" points="37.98,67.812 37.98,61.079 58.458,61.079 58.458,68.092 "/>
<circle fill="none" stroke="#814792" stroke-width="2.72" cx="43.713" cy="65.567" r="0.753"/>
<path fill="none" stroke="#814792" stroke-width="2.72" d="M15.962,46.634l-5.75-6.031c0,0-2.805-2.944-1.402-5.049
	c1.402-2.104,6.17-0.281,6.17-0.281l12.763,11.361c0,0,2.104,1.823,2.104,5.189s0,8.135,0,8.135"/>
<path fill="none" stroke="#814792" stroke-width="2.72" d="M17.084,61.22L2.778,44.39l-0.42-23.702c0,0-0.42-6.031,1.963-5.189
	c2.386,0.841,5.47,2.244,5.61,5.61c0.141,3.366,0.141,12.763,0.141,12.763"/>
<polyline fill="none" stroke="#814792" stroke-width="2.72" points="32.652,67.812 32.652,61.079 12.175,61.079 12.175,68.092 "/>
<circle fill="none" stroke="#814792" stroke-width="2.72" cx="26.919" cy="65.567" r="0.753"/>
</svg>
