<?xml version="1.0" encoding="utf-8"?>
<!-- Generator: Adobe Illustrator 13.0.0, SVG Export Plug-In . SVG Version: 6.00 Build 14948)  -->
<!DOCTYPE svg PUBLIC "-//W3C//DTD SVG 1.1//EN" "http://www.w3.org/Graphics/SVG/1.1/DTD/svg11.dtd">
<svg version="1.1" id="Calque_1" xmlns="http://www.w3.org/2000/svg" xmlns:xlink="http://www.w3.org/1999/xlink" x="0px" y="0px"
	 width="70px" height="70px" viewBox="0 0 70 70" enable-background="new 0 0 70 70" xml:space="preserve">
<g>
	<g>
		<path fill="#814792" d="M45.799,62.583H8.477V0.065H0V70h49.096L45.799,62.583z M23.9,38.564h18.719L56.16,70h8.83L50.744,36.446
			c7.889-2.12,12.598-9.419,12.598-17.308c0-5.651-2.59-11.302-7.182-14.717C51.686,1.007,46.27,0.3,40.854,0.3H15.542v56.042h8.477
			V38.564H23.9z M23.9,7.482h16.953c3.533,0,6.359,0.118,9.303,2.119c3.297,2.12,4.709,5.416,4.709,9.419
			c0,3.296-1.061,6.476-3.414,8.831c-3.297,3.414-7.064,3.767-11.656,3.767H23.9V7.482z"/>
	</g>
</g>
</svg>
