<?xml version="1.0" encoding="utf-8"?>
<!-- Generator: Adobe Illustrator 13.0.0, SVG Export Plug-In . SVG Version: 6.00 Build 14948)  -->
<!DOCTYPE svg PUBLIC "-//W3C//DTD SVG 1.1//EN" "http://www.w3.org/Graphics/SVG/1.1/DTD/svg11.dtd">
<svg version="1.1" id="Calque_1" xmlns="http://www.w3.org/2000/svg" xmlns:xlink="http://www.w3.org/1999/xlink" x="0px" y="0px"
	 width="70px" height="70px" viewBox="0 0 70 70" enable-background="new 0 0 70 70" xml:space="preserve">
<path fill="none" stroke="#814792" stroke-width="2.84" d="M33.315,13.43c-3.122,0-5.653-2.531-5.653-5.654
	c0-3.124,2.531-5.655,5.653-5.655c3.124,0,5.653,2.531,5.653,5.655C38.969,11.522,37.065,13.43,33.315,13.43z"/>
<path fill="none" stroke="#814792" stroke-width="2.84" d="M59.661,52.839c-3.124,0-5.653-2.531-5.653-5.654
	s2.529-5.654,5.653-5.654c3.121,0,5.653,2.531,5.653,5.654S62.782,52.839,59.661,52.839z"/>
<path fill="none" stroke="#814792" stroke-width="2.84" d="M9.757,41.401l9.435-22.386c0,0,1.768-4.788,8.191-1.386
	c6.423,3.401,5.139,11.412,5.719,12.635c0.579,1.223,4.989,5.507,4.989,5.507s4.286,2.771,2.269,5.795s-12.953-4.943-14.54-6.377
	c-1.587-1.434-2.217-10.127-2.217-10.127"/>
<line fill="none" stroke="#814792" stroke-width="2.84" x1="25.821" y1="42.9" x2="27.962" y2="37.117"/>
<polyline fill="none" stroke="#814792" stroke-width="2.84" points="0.8,45.472 17.178,45.472 17.053,69.032 "/>
<line fill="none" stroke="#814792" stroke-width="2.84" x1="17.304" y1="59.583" x2="42.627" y2="59.583"/>
<path fill="none" stroke="#814792" stroke-width="2.84" d="M38.703,55.759l11.231,9.871c0,0,10.457,1.008,13.48,0
	s5.419-4.535,4.662-6.047s-13.229-0.503-14.742-1.259c-1.511-0.757-5.417-11.718-12.094-11.718c-6.677,0-23.685,0-23.685,0"/>
</svg>
