<?xml version="1.0" encoding="utf-8"?>
<!-- Generator: Adobe Illustrator 13.0.0, SVG Export Plug-In . SVG Version: 6.00 Build 14948)  -->
<!DOCTYPE svg PUBLIC "-//W3C//DTD SVG 1.1//EN" "http://www.w3.org/Graphics/SVG/1.1/DTD/svg11.dtd">
<svg version="1.1" id="Calque_1" xmlns="http://www.w3.org/2000/svg" xmlns:xlink="http://www.w3.org/1999/xlink" x="0px" y="0px"
	 width="70px" height="70px" viewBox="0 0 70 70" enable-background="new 0 0 70 70" xml:space="preserve">
<circle fill="none" stroke="#814792" stroke-width="2.72" cx="14.153" cy="15.006" r="4.751"/>
<circle fill="none" stroke="#814792" stroke-width="2.72" cx="30.266" cy="9.635" r="5.783"/>
<path fill="none" stroke="#814792" stroke-width="2.72" d="M16.425,24.92c0,0-2.064,0.414-2.064,2.272
	c0,1.858,3.099,3.717,3.099,3.717l0.412,11.774L3.206,55.697c0,0-1.445,1.24-1.445,4.545s3.51,6.816,3.51,6.816h32.637
	c0,0,3.511-3.512,3.511-6.816s-1.446-4.545-1.446-4.545L25.307,42.685l0.414-11.774c0,0,3.098-1.859,3.098-3.717
	c0-1.859-2.065-2.272-2.065-2.272H16.425z"/>
<line fill="none" stroke="#814792" stroke-width="2.72" x1="11.262" y1="52.806" x2="35.842" y2="52.806"/>
<path fill="none" stroke="#814792" stroke-width="2.72" d="M43.278,48.262c0,0,3.926,1.858,7.849,1.858
	c12.395,0.827,17.146-19.003,17.146-19.003s-12.273-3.194-18.592-3.305c-11.772-0.207-9.294,15.492-9.294,15.492"/>
<path fill="none" stroke="#814792" stroke-width="2.72" d="M58.977,34.629c0,0-3.719-0.826-7.022,0.62
	C48.649,36.694,37.908,45.37,37.908,45.37"/>
<path fill="none" stroke="#814792" stroke-width="2.72" d="M35.223,41.858c0,0-3.099-5.577-1.033-14.046
	c2.065-8.469,11.361-12.807,11.361-12.807s5.576,4.75,5.164,9.088"/>
</svg>
